<mxfile host="app.diagrams.net" agent="Mozilla/5.0 (Windows NT 10.0; Win64; x64) AppleWebKit/537.36 (KHTML, like Gecko) Chrome/131.0.0.0 Safari/537.36" version="24.8.6">
  <diagram name="Page-1" id="hiySdHt4tDBBl1NtWyr4">
    <mxGraphModel dx="875" dy="464" grid="1" gridSize="10" guides="1" tooltips="1" connect="1" arrows="1" fold="1" page="1" pageScale="1" pageWidth="3000" pageHeight="2000" math="0" shadow="0">
      <root>
        <mxCell id="0" />
        <mxCell id="1" parent="0" />
        <mxCell id="wn5aN0iEjKITx3YnCoaq-1" value="&lt;div&gt;1&lt;/div&gt;&lt;font color=&quot;#ff0000&quot;&gt;{C}&lt;/font&gt;" style="rounded=1;whiteSpace=wrap;html=1;" vertex="1" parent="1">
          <mxGeometry x="1240" y="110" width="120" height="60" as="geometry" />
        </mxCell>
        <mxCell id="wn5aN0iEjKITx3YnCoaq-2" value="&lt;div&gt;2&lt;/div&gt;&lt;font color=&quot;#ff0000&quot;&gt;{B}&lt;/font&gt;" style="rounded=1;whiteSpace=wrap;html=1;" vertex="1" parent="1">
          <mxGeometry x="1510" y="110" width="120" height="60" as="geometry" />
        </mxCell>
        <mxCell id="wn5aN0iEjKITx3YnCoaq-3" value="&lt;div&gt;3&lt;/div&gt;&lt;font color=&quot;#ff0000&quot;&gt;{A}&lt;/font&gt;" style="rounded=1;whiteSpace=wrap;html=1;" vertex="1" parent="1">
          <mxGeometry x="1160" y="270" width="120" height="60" as="geometry" />
        </mxCell>
        <mxCell id="wn5aN0iEjKITx3YnCoaq-4" value="&lt;div&gt;4&lt;/div&gt;&lt;font color=&quot;#ff0000&quot;&gt;{C}&lt;/font&gt;" style="rounded=1;whiteSpace=wrap;html=1;" vertex="1" parent="1">
          <mxGeometry x="1510" y="270" width="120" height="60" as="geometry" />
        </mxCell>
        <mxCell id="wn5aN0iEjKITx3YnCoaq-5" value="&lt;div&gt;5&lt;/div&gt;&lt;font color=&quot;#ff0000&quot;&gt;{B}&lt;/font&gt;" style="rounded=1;whiteSpace=wrap;html=1;" vertex="1" parent="1">
          <mxGeometry x="1310" y="410" width="120" height="60" as="geometry" />
        </mxCell>
        <mxCell id="wn5aN0iEjKITx3YnCoaq-9" value="" style="endArrow=none;html=1;rounded=0;exitX=1;exitY=0.5;exitDx=0;exitDy=0;entryX=0;entryY=0.5;entryDx=0;entryDy=0;" edge="1" parent="1" source="wn5aN0iEjKITx3YnCoaq-1" target="wn5aN0iEjKITx3YnCoaq-2">
          <mxGeometry width="50" height="50" relative="1" as="geometry">
            <mxPoint x="1380" y="250" as="sourcePoint" />
            <mxPoint x="1430" y="200" as="targetPoint" />
          </mxGeometry>
        </mxCell>
        <mxCell id="wn5aN0iEjKITx3YnCoaq-10" value="" style="endArrow=none;html=1;rounded=0;entryX=0.5;entryY=1;entryDx=0;entryDy=0;exitX=0.5;exitY=0;exitDx=0;exitDy=0;" edge="1" parent="1" source="wn5aN0iEjKITx3YnCoaq-3" target="wn5aN0iEjKITx3YnCoaq-2">
          <mxGeometry width="50" height="50" relative="1" as="geometry">
            <mxPoint x="1380" y="250" as="sourcePoint" />
            <mxPoint x="1430" y="200" as="targetPoint" />
            <Array as="points">
              <mxPoint x="1400" y="220" />
            </Array>
          </mxGeometry>
        </mxCell>
        <mxCell id="wn5aN0iEjKITx3YnCoaq-12" value="" style="endArrow=none;html=1;rounded=0;entryX=0.5;entryY=1;entryDx=0;entryDy=0;exitX=0.5;exitY=0;exitDx=0;exitDy=0;" edge="1" parent="1" source="wn5aN0iEjKITx3YnCoaq-4" target="wn5aN0iEjKITx3YnCoaq-2">
          <mxGeometry width="50" height="50" relative="1" as="geometry">
            <mxPoint x="1380" y="250" as="sourcePoint" />
            <mxPoint x="1430" y="200" as="targetPoint" />
          </mxGeometry>
        </mxCell>
        <mxCell id="wn5aN0iEjKITx3YnCoaq-13" value="" style="endArrow=none;html=1;rounded=0;entryX=0.5;entryY=1;entryDx=0;entryDy=0;exitX=0.5;exitY=0;exitDx=0;exitDy=0;" edge="1" parent="1" source="wn5aN0iEjKITx3YnCoaq-5" target="wn5aN0iEjKITx3YnCoaq-3">
          <mxGeometry width="50" height="50" relative="1" as="geometry">
            <mxPoint x="1380" y="390" as="sourcePoint" />
            <mxPoint x="1430" y="340" as="targetPoint" />
          </mxGeometry>
        </mxCell>
        <mxCell id="wn5aN0iEjKITx3YnCoaq-14" value="" style="endArrow=none;html=1;rounded=0;entryX=0.5;entryY=1;entryDx=0;entryDy=0;exitX=0.5;exitY=0;exitDx=0;exitDy=0;" edge="1" parent="1" source="wn5aN0iEjKITx3YnCoaq-5" target="wn5aN0iEjKITx3YnCoaq-4">
          <mxGeometry width="50" height="50" relative="1" as="geometry">
            <mxPoint x="1380" y="390" as="sourcePoint" />
            <mxPoint x="1430" y="340" as="targetPoint" />
          </mxGeometry>
        </mxCell>
        <mxCell id="wn5aN0iEjKITx3YnCoaq-15" value="" style="endArrow=none;html=1;rounded=0;entryX=0;entryY=0.5;entryDx=0;entryDy=0;exitX=1;exitY=0.5;exitDx=0;exitDy=0;" edge="1" parent="1" source="wn5aN0iEjKITx3YnCoaq-3" target="wn5aN0iEjKITx3YnCoaq-4">
          <mxGeometry width="50" height="50" relative="1" as="geometry">
            <mxPoint x="1330" y="320" as="sourcePoint" />
            <mxPoint x="1380" y="270" as="targetPoint" />
          </mxGeometry>
        </mxCell>
      </root>
    </mxGraphModel>
  </diagram>
</mxfile>
